<?xml version="1.0" encoding="UTF-8"?>
<svg id="Layer_1" xmlns="http://www.w3.org/2000/svg" version="1.1" viewBox="0 0 499 499">
  <!-- Generator: Adobe Illustrator 30.6.0, SVG Export Plug-In . SVG Version: 2.1.4 Build 109)  -->
  <defs>
    <style>
      .st0 {
        fill: #fff;
      }

      .st1 {
        fill: #600405;
      }
    </style>
  </defs>
  <circle class="st1" cx="249.5" cy="249.5" r="249.5"/>
  <g>
    <path class="st0" d="M92,352.1l94.2-138.7c9.3-13.2,14-25.5,14-37s-3.1-16.7-9.3-22.2c-6.2-5.5-13.9-8.2-23.2-8.2s-14,2.7-19.8,8c-5.8,5.4-8.9,11.5-9.5,18.3l-39.9-21.4c4.9-14,14-25.7,27.1-35.2,13.2-9.5,28.4-14.2,45.7-14.2s26.9,3.1,38,9.3c11.1,6.2,19.8,14.7,25.9,25.5,6.2,10.8,9.3,22.8,9.3,36,0,18.7-6.2,37.3-18.5,56l-81.9,123.8h101.8v42H92v-41.9Z"/>
    <path class="st0" d="M356,267h-129.8l79.3-161h46.4l-52.4,118h56.5v-118h45v118h28.3l-7.8,43h-20.5v127h-45v-127Z"/>
  </g>
</svg>